<svg width="64" height="64" viewBox="0 0 64 64" fill="none" xmlns="http://www.w3.org/2000/svg">
<path d="M35.7915 24.6485C30.4651 19.3221 24.6653 16.0289 21.1122 16.0022C20.0656 15.9956 19.2189 16.2689 18.6323 16.8555C16.0457 19.4421 19.5322 27.1284 26.4253 34.0214C33.3183 40.9144 40.9979 44.4009 43.5911 41.8144C46.1777 39.2278 42.6845 31.5415 35.7915 24.6485Z" fill="#4E342E"/>
<path d="M52.4449 39.1144L50.6649 40.8877L49.7783 41.781L52.4449 44.4475L54.2181 42.6676L55.1114 41.781L52.4449 39.1144Z" fill="#FBC02D"/>
<path d="M18.6656 58.667L15.999 61.3335L18.6656 64.0001L21.3321 61.3335L18.6656 58.667Z" fill="#1976D2"/>
<path d="M13.3335 0.00292969L10.667 2.66947L13.3335 5.33602L16.0001 2.66947L13.3335 0.00292969Z" fill="#FBC02D"/>
<path d="M32.8853 0.00292969L30.7187 2.17616L30.2188 2.66947L32.8853 5.33602L35.5518 2.66947L32.8853 0.00292969Z" fill="#1976D2"/>
<path d="M36.4449 10.6693L33.7783 13.3358L36.4449 16.0024L39.1114 13.3358L36.4449 10.6693Z" fill="#FF8F00"/>
<path d="M61.3306 19.5553L60.1373 20.7553L58.6641 22.2219L61.3306 24.8884L63.9971 22.2219L62.9639 21.1953L61.3306 19.5553Z" fill="#F50057"/>
<path d="M2.66654 32.0015L0 34.668L2.66654 37.3346L5.33309 34.668L2.66654 32.0015Z" fill="#1976D2"/>
<path d="M60.4436 44.4476L58.1637 46.7208L56.8838 48.0008L58.0837 49.194L60.4436 51.5539L63.9968 48.0008L60.4436 44.4476Z" fill="#FF8F00"/>
<path d="M31.9978 51.5539L29.5513 54.0005L28.4447 55.1138L31.9978 58.6669L35.551 55.1138L34.7177 54.2805L31.9978 51.5539ZM24.8848 24.8885C25.0382 24.7552 26.6648 19.5554 26.6648 14.2223C26.6648 11.9691 26.0515 10.2225 24.8448 9.0359C22.8783 7.09599 19.8651 7.12265 19.8117 7.11599H19.5518V3.55615H19.7784C19.9117 3.56282 24.2382 3.47615 27.3047 6.46935C29.238 8.35593 30.2179 10.9625 30.2179 14.2223C30.2179 21.3353 24.8848 24.8885 24.8848 24.8885ZM63.9964 64H60.4432V63.78C60.3565 61.2201 59.4766 58.6669 58.8833 58.6669C57.59 58.6669 56.3167 60.2269 55.2901 61.4801C54.1902 62.8334 53.2369 64 51.7769 64C49.3237 64 48.7837 61.0935 48.2571 58.2803C48.1638 57.807 48.0504 57.1937 47.9238 56.6204C47.8305 56.8004 47.7438 56.9803 47.6571 57.1537C45.9972 60.5202 44.2773 64 41.5507 64C39.4508 64 37.3309 62.3534 37.3309 58.6669H40.8841C40.8841 59.7135 41.1574 60.4468 41.5507 60.4468C42.2307 60.1135 43.804 56.9337 44.4706 55.5804C45.7505 52.9805 46.4572 51.5539 47.9971 51.5539C50.617 51.5539 51.1903 54.6404 51.7503 57.627C51.8569 58.2136 52.0103 59.0202 52.1702 59.6802C52.2969 59.5269 52.4236 59.3736 52.5369 59.2336C53.9568 57.4937 55.9034 55.1138 58.8833 55.1138C63.5031 55.1138 63.9497 62.2868 63.9964 63.7267V64Z" fill="#F50057"/>
<path d="M26.4254 34.0213C20.2257 27.8216 16.7926 20.9886 18.0458 17.7954L18.0325 17.7821L0 60.4468L42.6647 42.4076L42.6514 42.3943C39.4582 43.6475 32.6252 40.221 26.4254 34.0213Z" fill="#FFB300"/>
<path d="M20.0991 25.9818L0 60.4468L24.4589 31.9148C22.6789 29.9083 21.2057 27.8817 20.0991 25.9818Z" fill="#FFE57F"/>
<path d="M62.2171 0.00296264C58.6306 0.0629594 56.144 0.836257 54.6974 2.27619C53.8708 3.08949 53.4042 4.12277 53.3375 5.26939C53.3375 5.28938 53.3308 5.40938 53.3308 5.44271C53.3642 7.66261 54.4508 9.58252 54.8308 10.2225C54.9041 10.3425 55.0307 10.5891 55.0574 10.6825C54.0975 10.6358 52.3775 10.2825 51.2976 10.0492C48.1177 9.37586 45.3712 8.78922 43.7379 10.1092C43.0446 10.6691 42.6647 11.4958 42.6647 12.4491C42.6647 14.4956 43.9913 16.3022 45.0579 17.7555C45.4979 18.3554 46.1645 19.2621 46.2178 19.5554C46.2178 20.482 45.5779 20.8287 42.1647 21.7486C38.3315 22.7886 31.9985 24.8885 28.4453 30.2216C33.7784 26.6684 39.2915 26.2151 43.0913 25.1818C46.3778 24.2952 49.7777 23.3752 49.7777 19.5554C49.7777 18.1755 48.8777 16.9488 47.9244 15.6489C47.2778 14.7689 46.4978 13.709 46.2778 12.8624C47.2578 12.8357 49.271 13.2557 50.551 13.529C52.2975 13.9023 53.8975 14.2156 55.1774 14.2223C56.704 14.2223 57.764 13.4423 58.2173 12.769L58.3839 12.4424C58.5906 11.9357 58.6639 11.4358 58.6639 10.9825C58.6639 9.73585 58.1106 8.76256 57.9906 8.56923C57.7373 8.18925 56.9773 6.86265 56.904 5.55604C56.904 5.52271 56.904 5.43604 56.904 5.41605C56.9307 5.17606 57.0107 4.98273 57.1973 4.79607C57.4973 4.49609 58.7972 3.53613 63.1104 3.55613H63.997V0.00296264C63.997 0.00296264 62.4704 -0.0037033 62.2171 0.00296264Z" fill="#FF8F00"/>
<path d="M60.4437 39.1144H63.9969C63.9969 38.8078 63.9769 38.5078 63.9503 38.2212C63.2236 31.9348 54.8307 30.2215 49.7776 30.2215C39.1114 30.2215 33.7783 35.5546 33.7783 35.5546C33.7783 35.5546 39.1114 33.7814 49.7776 33.7814C49.8842 33.7814 60.4437 33.928 60.4437 39.1144Z" fill="#1976D2"/>
<path d="M8.21962 16.0023C4.13981 16.0023 3.59983 15.3757 3.57983 15.349C3.57983 15.349 3.55317 15.289 3.51317 15.2824C3.72649 14.9424 4.93311 14.3624 5.57974 14.0558C6.92635 13.4158 8.43294 12.7025 8.79959 11.3359C8.85959 11.1292 8.88626 10.9092 8.88626 10.6693C8.88626 10.4359 8.86626 10.2093 8.82626 10.0026C8.49961 8.25603 6.88635 7.41607 5.67307 6.78277C4.05981 5.93614 3.55317 5.53616 3.55317 4.66953C3.55317 3.63625 5.04643 3.56292 5.34642 3.55625H5.33309V0.00308228C3.18652 0.00308228 0 1.24302 0 4.66953C0 7.82939 2.51988 9.14266 4.02648 9.92929C4.2998 10.0759 4.65978 10.2626 4.9331 10.4159C4.64645 10.5693 4.31313 10.7226 4.05315 10.8492C2.33989 11.6625 0 12.7758 0 15.1157C0 19.5555 5.34642 19.5555 8.21962 19.5555C8.33961 19.5555 8.45294 19.5622 8.54627 19.5688C7.77964 20.3955 5.73307 21.8354 1.84658 23.2153L3.03986 26.5685C5.86639 25.5619 12.4461 22.8287 12.4461 19.1155C12.4461 17.6156 11.1262 16.0023 8.21962 16.0023Z" fill="#FF8F00"/>
</svg>
