<svg width="20" height="20" viewBox="0 0 20 20" fill="none" xmlns="http://www.w3.org/2000/svg">
<path d="M14.6663 1.33331C13.5986 1.33331 12.5934 1.74998 11.8382 2.50519L10.5049 3.83852C9.74967 4.59373 9.33301 5.59894 9.33301 6.66665C9.33301 7.5104 9.59603 8.30988 10.0752 8.98175L8.98145 10.0755C8.30957 9.59633 7.50749 9.33331 6.66634 9.33331C5.59863 9.33331 4.59342 9.74998 3.83822 10.5052L2.50488 11.8385C1.74967 12.5937 1.33301 13.5989 1.33301 14.6666C1.33301 15.7344 1.74967 16.7396 2.50488 17.4948C3.26009 18.25 4.2653 18.6666 5.33301 18.6666C6.40072 18.6666 7.40592 18.25 8.16113 17.4948L9.49447 16.1614C10.2497 15.4062 10.6663 14.401 10.6663 13.3333C10.6663 12.9661 10.6143 12.6068 10.5205 12.263L9.31999 13.4609C9.28874 14.1015 9.03874 14.7318 8.55176 15.2187L7.21842 16.5521C6.17936 17.5911 4.48665 17.5911 3.44759 16.5521C2.40853 15.513 2.40853 13.8203 3.44759 12.7812L4.78092 11.4479C5.30176 10.9271 5.98405 10.6693 6.66634 10.6693C7.13509 10.6693 7.59863 10.7995 8.0127 11.0416L6.19499 12.862C6.02051 13.0286 5.9502 13.2786 6.0127 13.5104C6.07259 13.7448 6.25488 13.9271 6.48926 13.987C6.72103 14.0495 6.97103 13.9791 7.1377 13.8047L13.8044 7.138C14.0023 6.94529 14.0596 6.65363 13.9528 6.40102C13.846 6.14581 13.596 5.98435 13.32 5.99477C13.1455 5.99738 12.9814 6.07029 12.8617 6.19529L11.0413 8.013C10.4424 6.99217 10.57 5.65623 11.4476 4.78123L12.7809 3.4479C13.3018 2.92706 13.984 2.66925 14.6663 2.66925C15.3486 2.66925 16.0309 2.92967 16.5518 3.4479C17.5908 4.48696 17.5908 6.17967 16.5518 7.21873L15.2184 8.55206C14.7314 9.03904 14.1012 9.28904 13.4606 9.32029L12.2627 10.5208C12.6064 10.6146 12.9658 10.6666 13.333 10.6666C14.4007 10.6666 15.4059 10.25 16.1611 9.49477L17.4945 8.16144C18.2497 7.40623 18.6663 6.40102 18.6663 5.33331C18.6663 4.2656 18.2497 3.2604 17.4945 2.50519C16.7393 1.74998 15.734 1.33331 14.6663 1.33331Z" fill="black" fill-opacity="0.4"/>
</svg>
