<svg width="20" height="20" viewBox="0 0 20 20" fill="none" xmlns="http://www.w3.org/2000/svg">
<path d="M10 2C5.58073 2 2 5.58073 2 10C2 14.4193 5.58073 18 10 18C14.4193 18 18 14.4193 18 10C18 5.58073 14.4193 2 10 2ZM6.9974 5.60156C7.5599 5.60156 7.93229 5.97656 7.93229 6.47396C7.93229 6.97396 7.5599 7.34635 6.9349 7.34635C6.375 7.34896 6 6.97396 6 6.47396C6 5.97656 6.375 5.60156 6.9974 5.60156ZM8 13.3333H6V8H8V13.3333ZM14.6667 13.3333H12.7839V10.4193C12.7839 9.61198 12.2812 9.42708 12.0938 9.42708C11.9062 9.42708 11.2786 9.54948 11.2786 10.4193C11.2786 10.5417 11.2786 13.3333 11.2786 13.3333H9.33333V8H11.2786V8.74479C11.5286 8.3099 12.0312 8 12.974 8C13.9141 8 14.6667 8.74479 14.6667 10.4193V13.3333Z" fill="black" fill-opacity="0.4"/>
</svg>
