<svg width="17" height="17" viewBox="0 0 17 17" fill="none" xmlns="http://www.w3.org/2000/svg">
<path d="M15.3206 0.994782C15.2946 0.994782 15.2712 0.997386 15.2477 0.99999H11.3337C11.0941 0.997386 10.8701 1.12239 10.7477 1.33072C10.6279 1.53905 10.6279 1.79426 10.7477 2.00259C10.8701 2.21093 11.0941 2.33593 11.3337 2.33332H13.7243L6.8623 9.1953C6.68783 9.36197 6.61751 9.61197 6.68001 9.84374C6.73991 10.0781 6.9222 10.2604 7.15658 10.3203C7.38835 10.3828 7.63835 10.3125 7.80501 10.138L14.667 3.27603V5.66666C14.6644 5.90624 14.7894 6.1302 14.9977 6.25259C15.2061 6.37239 15.4613 6.37239 15.6696 6.25259C15.8779 6.1302 16.0029 5.90624 16.0003 5.66666V1.74999C16.0264 1.55728 15.9665 1.36197 15.8363 1.21353C15.7061 1.0677 15.516 0.986969 15.3206 0.994782ZM2.00033 3.66666C1.27116 3.66666 0.666992 4.27082 0.666992 4.99999V15C0.666992 15.7292 1.27116 16.3333 2.00033 16.3333H12.0003C12.7295 16.3333 13.3337 15.7292 13.3337 15V6.61457L12.0003 7.94791V15H2.00033V4.99999H9.05241L10.3857 3.66666H2.00033Z" fill="black"/>
</svg>
