<svg width="20" height="20" viewBox="0 0 20 20" fill="none" xmlns="http://www.w3.org/2000/svg">
<path d="M10 2C5.58073 2 2 5.58073 2 10C2 14.4193 5.58073 18 10 18C14.4193 18 18 14.4193 18 10C18 5.58073 14.4193 2 10 2ZM14.3099 8.35677C14.3125 8.44531 14.3151 8.53385 14.3151 8.6224C14.3151 11.3333 12.2526 14.4583 8.47917 14.4583C7.31771 14.4583 6.23958 14.1198 5.33333 13.5365C5.49479 13.5573 5.65625 13.5651 5.82292 13.5651C6.78646 13.5651 7.66927 13.237 8.36979 12.6849C7.47396 12.6693 6.71354 12.0755 6.45313 11.2604C6.57813 11.2865 6.70833 11.2969 6.84115 11.2969C7.02604 11.2969 7.20833 11.2734 7.38021 11.2266C6.44271 11.0391 5.73437 10.2083 5.73437 9.21354C5.73437 9.20573 5.73437 9.19792 5.73437 9.1875C6.01042 9.34375 6.32813 9.4349 6.66406 9.44531C6.11458 9.07813 5.7526 8.45052 5.7526 7.73698C5.7526 7.36198 5.85156 7.00781 6.02865 6.70573C7.04167 7.94792 8.55208 8.76563 10.2578 8.85156C10.224 8.70052 10.2057 8.54427 10.2057 8.38281C10.2057 7.25 11.1224 6.33073 12.2552 6.33073C12.8464 6.33073 13.3802 6.58073 13.7526 6.97917C14.2214 6.88542 14.6589 6.71615 15.0573 6.48177C14.9036 6.96094 14.5781 7.36198 14.1536 7.61719C14.5677 7.56771 14.9635 7.45833 15.3333 7.29427C15.0599 7.70573 14.7109 8.06771 14.3099 8.35677Z" fill="black" fill-opacity="0.4"/>
</svg>
